<svg width="95" height="48" viewBox="0 0 95 48" fill="none" xmlns="http://www.w3.org/2000/svg">
<g clip-path="url(#clip0_215_22749)">
<path d="M7.15676 11.9909L4.7002 9.80688" stroke="#02011F" stroke-width="1.39466" stroke-linecap="round"/>
<path d="M15.348 9.99111L15.356 6.8125" stroke="#02011F" stroke-width="1.39466" stroke-linecap="round"/>
<path d="M25.3374 9.98997L23.0767 12.3535" stroke="#02011F" stroke-width="1.39466" stroke-linecap="round"/>
<path d="M54.3569 3.58789C61.582 1.32369 72.6533 -1.72536 83.1245 7.41992C86.2453 10.3239 89.9699 15.5075 91.0503 21.5732C92.1149 27.5512 90.6425 34.5272 83.1245 41.2461C81.9542 42.292 79.8087 43.2891 76.7407 44.0879C73.7087 44.8774 69.907 45.4407 65.5522 45.7061C56.8441 46.2366 46.0254 45.5719 34.9233 43.2324L34.8979 43.2266L34.8716 43.2227L34.3589 43.1328C31.721 42.6466 27.9819 41.6036 24.771 39.958C21.3005 38.1793 18.856 35.9128 18.5063 33.2412C18.5209 32.6077 18.7609 31.7374 19.311 30.6338C19.8702 29.5122 20.704 28.2361 21.7817 26.8506C23.9366 24.0806 26.9957 20.9663 30.564 17.9033C37.7191 11.7614 46.7514 5.97132 54.3569 3.58789Z" stroke="#02011F" stroke-width="2.44066"/>
<path d="M11.7344 32.2422H15.1154V33.1504H13.9079V34.0585H15.1154V35.1938H11.7344V34.0585H13.9079V33.1504L11.7344 33.1837V32.2422Z" fill="#02011F"/>
<path d="M15.1154 36.1019H11.7344C11.9276 36.8285 12.4589 37.1615 12.7004 37.2372H15.1154V36.1019Z" fill="#02011F"/>
<path d="M16.3633 31.118H11.2918C11.2918 28.7567 10.3258 27.0312 9.60133 26.5771C5.93052 23.8526 6.46182 19.0846 7.18632 17.0412C9.31153 11.5922 15.4778 11.8949 18.2954 12.7274C23.3276 14.2143 24.5351 19.7539 24.0914 21.5821C23.5541 23.7957 20.7104 27.2582 19.2614 28.1664C17.2823 29.4068 17.1683 29.9828 16.3633 31.118Z" fill="#02011F"/>
<path d="M4.9689 19.7539H1.58789" stroke="#02011F" stroke-width="1.39466" stroke-linecap="round"/>
<path d="M29.2802 19.2804L25.9019 19.4141" stroke="#02011F" stroke-width="1.39466" stroke-linecap="round"/>
<path d="M15.3246 24.9277C14.2861 24.9277 13.364 24.7205 12.5581 24.3063C11.7523 23.8863 11.1195 23.2961 10.6599 22.5357C10.2002 21.7696 9.97038 20.8644 9.97038 19.8202C9.97038 18.7874 10.1775 17.8794 10.5918 17.0963C11.0117 16.3132 11.6047 15.7031 12.3709 15.2661C13.1426 14.8235 14.0591 14.6022 15.1203 14.6022C15.6935 14.6022 16.2468 14.7043 16.7802 14.9086C17.3194 15.1129 17.8017 15.4023 18.2273 15.7769C18.6586 16.1514 18.9991 16.5969 19.2488 17.1133C19.5042 17.6297 19.6319 18.2001 19.6319 18.8243C19.6319 19.108 19.5723 19.3123 19.4531 19.4372C19.334 19.5564 19.1694 19.6358 18.9594 19.6755C18.7494 19.7153 18.5083 19.7493 18.2359 19.7777L11.7835 19.9564C11.7835 20.6999 11.9424 21.3269 12.2602 21.8377C12.578 22.3427 13.0093 22.7258 13.5541 22.9868C14.0989 23.2422 14.7118 23.3699 15.3927 23.3699C15.8751 23.3699 16.2837 23.3075 16.6185 23.1826C16.9533 23.0578 17.2484 22.896 17.5038 22.6974C17.7648 22.4931 18.0202 22.2746 18.2699 22.042C18.4458 21.8944 18.6331 21.8206 18.8317 21.8206C19.0644 21.8206 19.2573 21.8916 19.4106 22.0335C19.5695 22.1697 19.6489 22.3541 19.6489 22.5868C19.6489 22.95 19.4985 23.2763 19.1978 23.5657C18.9027 23.8551 18.5281 24.102 18.0741 24.3063C17.6201 24.5049 17.1463 24.6581 16.6526 24.7659C16.1588 24.8737 15.7162 24.9277 15.3246 24.9277ZM11.7495 18.7562L16.8654 18.6455C17.0243 18.6342 17.169 18.603 17.2995 18.5519C17.43 18.5008 17.4953 18.41 17.4953 18.2795C17.4953 17.7347 17.379 17.3006 17.1463 16.9771C16.9193 16.648 16.6242 16.4125 16.261 16.2706C15.8978 16.1231 15.5176 16.0493 15.1203 16.0493C14.1159 16.0493 13.3214 16.2961 12.7369 16.7899C12.1524 17.2779 11.8232 17.9333 11.7495 18.7562Z" fill="white"/>
<path d="M36.1147 29.842C35.7312 29.842 35.4348 29.7433 35.2256 29.5457C35.0281 29.3365 34.9293 29.0401 34.9293 28.6566V18.737C34.9293 18.3535 35.0281 18.063 35.2256 17.8654C35.4348 17.6562 35.7312 17.5516 36.1147 17.5516H42.3384C42.629 17.5516 42.8498 17.6271 43.0009 17.7782C43.1636 17.9293 43.2449 18.1443 43.2449 18.4232C43.2449 18.7138 43.1636 18.9404 43.0009 19.1031C42.8498 19.2542 42.629 19.3298 42.3384 19.3298H37.0736V22.7118H41.9549C42.2571 22.7118 42.4837 22.7874 42.6348 22.9385C42.7859 23.0896 42.8614 23.3104 42.8614 23.6009C42.8614 23.8915 42.7859 24.1123 42.6348 24.2634C42.4837 24.4145 42.2571 24.49 41.9549 24.49H37.0736V28.0638H42.3384C42.629 28.0638 42.8498 28.1394 43.0009 28.2905C43.1636 28.4416 43.2449 28.6624 43.2449 28.9529C43.2449 29.2435 43.1636 29.4643 43.0009 29.6154C42.8498 29.7665 42.629 29.842 42.3384 29.842H36.1147ZM46.3384 29.9292C45.9432 29.9292 45.6236 29.8072 45.3796 29.5631C45.1471 29.319 45.0309 29.0052 45.0309 28.6217C45.0309 28.2498 45.1471 27.9476 45.3796 27.7152C45.6236 27.4711 45.9432 27.3491 46.3384 27.3491C46.7452 27.3491 47.059 27.4711 47.2798 27.7152C47.5122 27.9476 47.6285 28.2498 47.6285 28.6217C47.6285 29.0052 47.5122 29.319 47.2798 29.5631C47.059 29.8072 46.7452 29.9292 46.3384 29.9292ZM54.88 30.0164C53.6016 30.0164 52.5033 29.7607 51.5851 29.2493C50.6786 28.7263 49.9813 27.9941 49.4931 27.0527C49.005 26.0997 48.7609 24.9782 48.7609 23.6881C48.7609 22.7235 48.9004 21.8576 49.1793 21.0905C49.4583 20.3118 49.8592 19.6494 50.3822 19.1031C50.9052 18.5453 51.5445 18.1211 52.2999 17.8305C53.067 17.5283 53.927 17.3772 54.88 17.3772C55.5192 17.3772 56.1468 17.4586 56.7628 17.6213C57.3788 17.784 57.9192 18.0165 58.3841 18.3186C58.6282 18.4697 58.7909 18.6557 58.8722 18.8765C58.9536 19.0857 58.971 19.2949 58.9245 19.5041C58.8781 19.7017 58.7793 19.8702 58.6282 20.0097C58.4887 20.1491 58.3086 20.2305 58.0878 20.2537C57.8786 20.2654 57.6461 20.1898 57.3904 20.0271C57.0301 19.7947 56.6408 19.6261 56.2224 19.5215C55.804 19.4169 55.3798 19.3646 54.9498 19.3646C54.1246 19.3646 53.4273 19.5332 52.8578 19.8702C52.2883 20.2072 51.8583 20.6954 51.5677 21.3346C51.2772 21.9738 51.1319 22.7583 51.1319 23.6881C51.1319 24.6062 51.2772 25.3907 51.5677 26.0416C51.8583 26.6924 52.2883 27.1864 52.8578 27.5234C53.4273 27.8605 54.1246 28.029 54.9498 28.029C55.3914 28.029 55.8272 27.9767 56.2573 27.8721C56.6873 27.7559 57.0941 27.5815 57.4776 27.3491C57.7333 27.198 57.9599 27.1341 58.1575 27.1573C58.3667 27.1689 58.541 27.2387 58.6805 27.3665C58.8199 27.4944 58.9129 27.6571 58.9594 27.8546C59.0059 28.0406 58.9943 28.2382 58.9245 28.4474C58.8548 28.645 58.7153 28.8193 58.5062 28.9704C58.0413 29.3074 57.4834 29.5689 56.8326 29.7549C56.1933 29.9292 55.5425 30.0164 54.88 30.0164ZM62.1966 29.842C61.813 29.842 61.5167 29.7433 61.3075 29.5457C61.1099 29.3365 61.0111 29.0401 61.0111 28.6566V18.737C61.0111 18.3535 61.1099 18.063 61.3075 17.8654C61.5167 17.6562 61.813 17.5516 62.1966 17.5516H68.4202C68.7108 17.5516 68.9316 17.6271 69.0827 17.7782C69.2454 17.9293 69.3268 18.1443 69.3268 18.4232C69.3268 18.7138 69.2454 18.9404 69.0827 19.1031C68.9316 19.2542 68.7108 19.3298 68.4202 19.3298H63.1554V22.7118H68.0367C68.3389 22.7118 68.5655 22.7874 68.7166 22.9385C68.8677 23.0896 68.9432 23.3104 68.9432 23.6009C68.9432 23.8915 68.8677 24.1123 68.7166 24.2634C68.5655 24.4145 68.3389 24.49 68.0367 24.49H63.1554V28.0638H68.4202C68.7108 28.0638 68.9316 28.1394 69.0827 28.2905C69.2454 28.4416 69.3268 28.6624 69.3268 28.9529C69.3268 29.2435 69.2454 29.4643 69.0827 29.6154C68.9316 29.7665 68.7108 29.842 68.4202 29.842H62.1966ZM72.5463 29.842C72.186 29.842 71.9071 29.7433 71.7095 29.5457C71.512 29.3365 71.4132 29.0517 71.4132 28.6914V18.6324C71.4132 18.2605 71.5062 17.9816 71.6921 17.7956C71.8897 17.5981 72.1686 17.4993 72.5289 17.4993C72.8892 17.4993 73.1623 17.5981 73.3483 17.7956C73.5458 17.9816 73.6446 18.2605 73.6446 18.6324V27.9418H78.7003C79.0141 27.9418 79.2523 28.0232 79.415 28.1859C79.5894 28.3486 79.6765 28.581 79.6765 28.8832C79.6765 29.1854 79.5894 29.4236 79.415 29.598C79.2523 29.7607 79.0141 29.842 78.7003 29.842H72.5463ZM82.3355 29.842C81.9752 29.842 81.6963 29.7433 81.4987 29.5457C81.3012 29.3365 81.2024 29.0517 81.2024 28.6914V18.6324C81.2024 18.2605 81.2953 17.9816 81.4813 17.7956C81.6789 17.5981 81.9578 17.4993 82.3181 17.4993C82.6784 17.4993 82.9515 17.5981 83.1375 17.7956C83.335 17.9816 83.4338 18.2605 83.4338 18.6324V27.9418H88.4895C88.8033 27.9418 89.0415 28.0232 89.2042 28.1859C89.3786 28.3486 89.4657 28.581 89.4657 28.8832C89.4657 29.1854 89.3786 29.4236 89.2042 29.598C89.0415 29.7607 88.8033 29.842 88.4895 29.842H82.3355Z" fill="#02011F"/>
<path d="M57.494 31.6207L56.1457 35.7305H55.0595L56.9016 30.7729H57.5928L57.494 31.6207ZM58.6142 35.7305L57.2625 31.6207L57.1535 30.7729H57.8515L59.7038 35.7305H58.6142ZM58.5529 33.885V34.6852H55.9345V33.885H58.5529ZM61.2497 30.7729V35.7305H60.2316V30.7729H61.2497ZM64.3209 30.7729V35.7305H63.3028V30.7729H64.3209ZM65.8463 30.7729V31.573H61.8013V30.7729H65.8463ZM69.9118 33.9633H68.6486V33.1666H69.9118C70.107 33.1666 70.2659 33.1348 70.3885 33.0712C70.5111 33.0054 70.6007 32.9146 70.6575 32.7988C70.7142 32.683 70.7426 32.5525 70.7426 32.4072C70.7426 32.2597 70.7142 32.1224 70.6575 31.9953C70.6007 31.8681 70.5111 31.766 70.3885 31.6888C70.2659 31.6116 70.107 31.573 69.9118 31.573H69.0027V35.7305H67.9812V30.7729H69.9118C70.3 30.7729 70.6325 30.8432 70.9095 30.984C71.1887 31.1225 71.402 31.3143 71.5496 31.5594C71.6971 31.8046 71.7709 32.0849 71.7709 32.4004C71.7709 32.7205 71.6971 32.9974 71.5496 33.2312C71.402 33.4651 71.1887 33.6455 70.9095 33.7726C70.6325 33.8997 70.3 33.9633 69.9118 33.9633ZM75.2133 30.7729H76.2314V34.0484C76.2314 34.4298 76.1497 34.751 75.9862 35.012C75.8251 35.2731 75.6015 35.4694 75.3155 35.6011C75.0317 35.7327 74.7048 35.7986 74.3348 35.7986C73.9648 35.7986 73.6357 35.7327 73.3474 35.6011C73.0614 35.4694 72.8367 35.2731 72.6732 35.012C72.5121 34.751 72.4315 34.4298 72.4315 34.0484V30.7729H73.453V34.0484C73.453 34.2709 73.4881 34.4525 73.5585 34.5932C73.6289 34.734 73.7299 34.8372 73.8615 34.9031C73.9955 34.9689 74.1532 35.0018 74.3348 35.0018C74.521 35.0018 74.6787 34.9689 74.8081 34.9031C74.9398 34.8372 75.0397 34.734 75.1078 34.5932C75.1781 34.4525 75.2133 34.2709 75.2133 34.0484V30.7729ZM81.1072 30.7729V35.7305H80.0858L78.0939 32.4072V35.7305H77.0724V30.7729H78.0939L80.0892 34.0995V30.7729H81.1072ZM85.3226 34.9337V35.7305H82.6837V34.9337H85.3226ZM83.0174 30.7729V35.7305H81.9959V30.7729H83.0174ZM84.9787 32.792V33.5683H82.6837V32.792H84.9787ZM85.3192 30.7729V31.573H82.6837V30.7729H85.3192Z" fill="#02011F"/>
</g>
<defs>
<clipPath id="clip0_215_22749">
<rect width="94.1957" height="47.0979" fill="white"/>
</clipPath>
</defs>
</svg>
