<svg width="161" height="42" viewBox="0 0 161 42" fill="none" xmlns="http://www.w3.org/2000/svg">
<path d="M24.3354 26.6581C21.2217 25.4342 18.9638 25.0334 15.9962 25.56C13.3503 26.0295 11.2777 28.0055 10.0752 30.4086L6.59228 37.3688C5.91268 38.7269 4.2437 39.2527 2.90835 38.5294C1.72705 37.8896 1.19962 36.4757 1.67319 35.2185L13.2319 4.53301C13.9193 2.70812 15.6654 1.5 17.6154 1.5C19.6072 1.5 21.3812 2.75956 22.0378 4.64L32.9275 35.8262C33.3021 36.8989 34.8912 36.6152 34.8715 35.4791L34.3374 4.81158C34.3057 2.99205 35.772 1.5 37.5918 1.5C39.3894 1.5 40.8467 2.95727 40.8467 4.7549V37.9158" stroke="#2F84C3" stroke-width="3" stroke-linecap="round"/>
<path d="M67.9667 17.8019C68.82 17.8019 69.5733 17.9685 70.2267 18.3019C70.8933 18.6352 71.4133 19.1485 71.7867 19.8419C72.16 20.5219 72.3467 21.4019 72.3467 22.4819V28.6019H69.8467V22.8019C69.8467 21.8552 69.64 21.1485 69.2267 20.6819C68.8133 20.2152 68.22 19.9819 67.4467 19.9819C66.9 19.9819 66.4133 20.1019 65.9867 20.3419C65.5733 20.5819 65.2467 20.9352 65.0067 21.4019C64.78 21.8685 64.6667 22.4619 64.6667 23.1819V28.6019H62.1667V22.8019C62.1667 21.8552 61.96 21.1485 61.5467 20.6819C61.1333 20.2152 60.54 19.9819 59.7667 19.9819C59.22 19.9819 58.7333 20.1019 58.3067 20.3419C57.8933 20.5819 57.5667 20.9352 57.3267 21.4019C57.1 21.8685 56.9867 22.4619 56.9867 23.1819V28.6019H54.4867V17.9219H56.8667V20.7619L56.4467 19.9219C56.8067 19.2285 57.3267 18.7019 58.0067 18.3419C58.7 17.9819 59.4867 17.8019 60.3667 17.8019C61.3667 17.8019 62.2333 18.0485 62.9667 18.5419C63.7133 19.0352 64.2067 19.7819 64.4467 20.7819L63.4667 20.4419C63.8133 19.6419 64.3867 19.0019 65.1867 18.5219C65.9867 18.0419 66.9133 17.8019 67.9667 17.8019ZM76.2261 32.6219C75.7061 32.6219 75.1861 32.5352 74.6661 32.3619C74.1461 32.1885 73.7127 31.9485 73.3661 31.6419L74.3661 29.8019C74.6194 30.0285 74.9061 30.2085 75.2261 30.3419C75.5461 30.4752 75.8727 30.5419 76.2061 30.5419C76.6594 30.5419 77.0261 30.4285 77.3061 30.2019C77.5861 29.9752 77.8461 29.5952 78.0861 29.0619L78.7061 27.6619L78.9061 27.3619L82.9461 17.9219H85.3461L80.3461 29.4619C80.0127 30.2619 79.6394 30.8952 79.2261 31.3619C78.8261 31.8285 78.3727 32.1552 77.8661 32.3419C77.3727 32.5285 76.8261 32.6219 76.2261 32.6219ZM78.4261 28.9819L73.6061 17.9219H76.2061L80.1261 27.1419L78.4261 28.9819ZM84.6217 28.6019L90.9217 14.6019H93.4817L99.8017 28.6019H97.0817L91.6617 15.9819H92.7017L87.3017 28.6019H84.6217ZM87.5217 25.3619L88.2217 23.3219H95.7817L96.4817 25.3619H87.5217ZM101.582 28.6019V14.6019H104.182V28.6019H101.582ZM121.209 17.8019C122.062 17.8019 122.816 17.9685 123.469 18.3019C124.136 18.6352 124.656 19.1485 125.029 19.8419C125.402 20.5219 125.589 21.4019 125.589 22.4819V28.6019H123.089V22.8019C123.089 21.8552 122.882 21.1485 122.469 20.6819C122.056 20.2152 121.462 19.9819 120.689 19.9819C120.142 19.9819 119.656 20.1019 119.229 20.3419C118.816 20.5819 118.489 20.9352 118.249 21.4019C118.022 21.8685 117.909 22.4619 117.909 23.1819V28.6019H115.409V22.8019C115.409 21.8552 115.202 21.1485 114.789 20.6819C114.376 20.2152 113.782 19.9819 113.009 19.9819C112.462 19.9819 111.976 20.1019 111.549 20.3419C111.136 20.5819 110.809 20.9352 110.569 21.4019C110.342 21.8685 110.229 22.4619 110.229 23.1819V28.6019H107.729V17.9219H110.109V20.7619L109.689 19.9219C110.049 19.2285 110.569 18.7019 111.249 18.3419C111.942 17.9819 112.729 17.8019 113.609 17.8019C114.609 17.8019 115.476 18.0485 116.209 18.5419C116.956 19.0352 117.449 19.7819 117.689 20.7819L116.709 20.4419C117.056 19.6419 117.629 19.0019 118.429 18.5219C119.229 18.0419 120.156 17.8019 121.209 17.8019ZM135.364 28.6019V26.4419L135.224 25.9819V22.2019C135.224 21.4685 135.004 20.9019 134.564 20.5019C134.124 20.0885 133.457 19.8819 132.564 19.8819C131.964 19.8819 131.37 19.9752 130.784 20.1619C130.21 20.3485 129.724 20.6085 129.324 20.9419L128.344 19.1219C128.917 18.6819 129.597 18.3552 130.384 18.1419C131.184 17.9152 132.01 17.8019 132.864 17.8019C134.41 17.8019 135.604 18.1752 136.444 18.9219C137.297 19.6552 137.724 20.7952 137.724 22.3419V28.6019H135.364ZM132.004 28.7419C131.204 28.7419 130.504 28.6085 129.904 28.3419C129.304 28.0619 128.837 27.6819 128.504 27.2019C128.184 26.7085 128.024 26.1552 128.024 25.5419C128.024 24.9419 128.164 24.4019 128.444 23.9219C128.737 23.4419 129.21 23.0619 129.864 22.7819C130.517 22.5019 131.384 22.3619 132.464 22.3619H135.564V24.0219H132.644C131.79 24.0219 131.217 24.1619 130.924 24.4419C130.63 24.7085 130.484 25.0419 130.484 25.4419C130.484 25.8952 130.664 26.2552 131.024 26.5219C131.384 26.7885 131.884 26.9219 132.524 26.9219C133.137 26.9219 133.684 26.7819 134.164 26.5019C134.657 26.2219 135.01 25.8085 135.224 25.2619L135.644 26.7619C135.404 27.3885 134.97 27.8752 134.344 28.2219C133.73 28.5685 132.95 28.7419 132.004 28.7419ZM144.952 28.7419C143.779 28.7419 142.872 28.4419 142.232 27.8419C141.592 27.2285 141.272 26.3285 141.272 25.1419V15.5619H143.772V25.0819C143.772 25.5885 143.899 25.9819 144.152 26.2619C144.419 26.5419 144.785 26.6819 145.252 26.6819C145.812 26.6819 146.279 26.5352 146.652 26.2419L147.352 28.0219C147.059 28.2619 146.699 28.4419 146.272 28.5619C145.845 28.6819 145.405 28.7419 144.952 28.7419ZM139.512 20.0019V18.0019H146.632V20.0019H139.512ZM154.077 28.7419C152.89 28.7419 151.85 28.5085 150.957 28.0419C150.077 27.5619 149.39 26.9085 148.897 26.0819C148.417 25.2552 148.177 24.3152 148.177 23.2619C148.177 22.1952 148.41 21.2552 148.877 20.4419C149.357 19.6152 150.01 18.9685 150.837 18.5019C151.677 18.0352 152.63 17.8019 153.697 17.8019C154.737 17.8019 155.664 18.0285 156.477 18.4819C157.29 18.9352 157.93 19.5752 158.397 20.4019C158.864 21.2285 159.097 22.2019 159.097 23.3219C159.097 23.4285 159.09 23.5485 159.077 23.6819C159.077 23.8152 159.07 23.9419 159.057 24.0619H150.157V22.4019H157.737L156.757 22.9219C156.77 22.3085 156.644 21.7685 156.377 21.3019C156.11 20.8352 155.744 20.4685 155.277 20.2019C154.824 19.9352 154.297 19.8019 153.697 19.8019C153.084 19.8019 152.544 19.9352 152.077 20.2019C151.624 20.4685 151.264 20.8419 150.997 21.3219C150.744 21.7885 150.617 22.3419 150.617 22.9819V23.3819C150.617 24.0219 150.764 24.5885 151.057 25.0819C151.35 25.5752 151.764 25.9552 152.297 26.2219C152.83 26.4885 153.444 26.6219 154.137 26.6219C154.737 26.6219 155.277 26.5285 155.757 26.3419C156.237 26.1552 156.664 25.8619 157.037 25.4619L158.377 27.0019C157.897 27.5619 157.29 27.9952 156.557 28.3019C155.837 28.5952 155.01 28.7419 154.077 28.7419Z" fill="#0D0D0D"/>
</svg>
