<svg width="300" height="300" viewBox="0 0 300 300" fill="none" xmlns="http://www.w3.org/2000/svg">
<path d="M38.2991 215.714H4.22699L48.4823 84.5495H90.6881L134.943 215.714H100.871L70.0655 117.597H69.0408L38.2991 215.714ZM33.7519 164.094H104.97V188.175H33.7519V164.094ZM138.244 215.714V84.5495H169.947V140.013H171.676L215.035 84.5495H252.373L205.876 143.087L253.205 215.714H215.291L182.628 164.158L169.947 180.169V215.714H138.244ZM271.669 217.572C267.058 217.572 263.108 215.949 259.821 212.704C256.576 209.459 254.975 205.531 255.017 200.92C254.975 196.394 256.576 192.53 259.821 189.328C263.108 186.083 267.058 184.46 271.669 184.46C276.024 184.46 279.867 186.083 283.197 189.328C286.57 192.53 288.278 196.394 288.321 200.92C288.278 203.994 287.467 206.791 285.887 209.31C284.35 211.829 282.322 213.836 279.803 215.33C277.326 216.824 274.615 217.572 271.669 217.572Z" fill="white"/>
</svg>
